<svg width="28" height="28" viewBox="0 0 28 28" fill="none" xmlns="http://www.w3.org/2000/svg">
<path d="M14.0001 2.625C7.71758 2.625 2.62508 7.7175 2.62508 13.9983C2.62508 15.8139 3.05033 17.5315 3.80808 19.0557L2.32408 23.5069C1.87696 24.8474 3.12208 26.138 4.47746 25.7381L9.24883 24.3355C10.7389 25.0207 12.36 25.3745 14.0001 25.3724C20.2817 25.3724 25.3751 20.2799 25.3751 13.9983C25.3751 7.7175 20.2808 2.625 14.0001 2.625ZM9.62421 12.2491C9.62421 12.0171 9.7164 11.7945 9.88049 11.6304C10.0446 11.4663 10.2671 11.3741 10.4992 11.3741H17.4992C17.7313 11.3741 17.9538 11.4663 18.1179 11.6304C18.282 11.7945 18.3742 12.0171 18.3742 12.2491C18.3742 12.4812 18.282 12.7037 18.1179 12.8678C17.9538 13.0319 17.7313 13.1241 17.4992 13.1241H10.4992C10.2671 13.1241 10.0446 13.0319 9.88049 12.8678C9.7164 12.7037 9.62421 12.4812 9.62421 12.2491ZM10.4992 14.8741H15.7492C15.8664 14.8704 15.9831 14.8903 16.0925 14.9326C16.2018 14.9749 16.3015 15.0387 16.3857 15.1203C16.4699 15.2018 16.5369 15.2995 16.5826 15.4075C16.6283 15.5154 16.6519 15.6315 16.6519 15.7487C16.6519 15.8659 16.6283 15.982 16.5826 16.0899C16.5369 16.1979 16.4699 16.2955 16.3857 16.3771C16.3015 16.4587 16.2018 16.5225 16.0925 16.5648C15.9831 16.6071 15.8664 16.627 15.7492 16.6232H10.4992C10.2671 16.6232 10.0446 16.5311 9.88049 16.367C9.7164 16.2029 9.62421 15.9803 9.62421 15.7482C9.62421 15.5162 9.7164 15.2936 9.88049 15.1295C10.0446 14.9654 10.2671 14.8732 10.4992 14.8732V14.8741Z" fill="#AFAFAF"/>
</svg>
