<svg width="28" height="28" viewBox="0 0 28 28" fill="none" xmlns="http://www.w3.org/2000/svg">
<path d="M14.0001 9.33334V2.33334H7.00008C6.38124 2.33334 5.78775 2.57917 5.35017 3.01675C4.91258 3.45434 4.66675 4.04783 4.66675 4.66667V23.3333C4.66675 23.9522 4.91258 24.5457 5.35017 24.9833C5.78775 25.4208 6.38124 25.6667 7.00008 25.6667H21.0001C21.6189 25.6667 22.2124 25.4208 22.65 24.9833C23.0876 24.5457 23.3334 23.9522 23.3334 23.3333V11.6667H16.3334C15.7146 11.6667 15.1211 11.4208 14.6835 10.9833C14.2459 10.5457 14.0001 9.95217 14.0001 9.33334ZM8.16675 14.2917C8.16675 14.0596 8.25893 13.837 8.42303 13.673C8.58712 13.5089 8.80968 13.4167 9.04175 13.4167C9.27381 13.4167 9.49637 13.5089 9.66047 13.673C9.82456 13.837 9.91675 14.0596 9.91675 14.2917C9.91675 14.5237 9.82456 14.7463 9.66047 14.9104C9.49637 15.0745 9.27381 15.1667 9.04175 15.1667C8.80968 15.1667 8.58712 15.0745 8.42303 14.9104C8.25893 14.7463 8.16675 14.5237 8.16675 14.2917ZM8.16675 17.7917C8.16675 17.5596 8.25893 17.337 8.42303 17.173C8.58712 17.0089 8.80968 16.9167 9.04175 16.9167C9.27381 16.9167 9.49637 17.0089 9.66047 17.173C9.82456 17.337 9.91675 17.5596 9.91675 17.7917C9.91675 18.0237 9.82456 18.2463 9.66047 18.4104C9.49637 18.5745 9.27381 18.6667 9.04175 18.6667C8.80968 18.6667 8.58712 18.5745 8.42303 18.4104C8.25893 18.2463 8.16675 18.0237 8.16675 17.7917ZM8.16675 21.2917C8.16675 21.0596 8.25893 20.837 8.42303 20.673C8.58712 20.5089 8.80968 20.4167 9.04175 20.4167C9.27381 20.4167 9.49637 20.5089 9.66047 20.673C9.82456 20.837 9.91675 21.0596 9.91675 21.2917C9.91675 21.5237 9.82456 21.7463 9.66047 21.9104C9.49637 22.0745 9.27381 22.1667 9.04175 22.1667C8.80968 22.1667 8.58712 22.0745 8.42303 21.9104C8.25893 21.7463 8.16675 21.5237 8.16675 21.2917ZM11.6667 14.2917C11.6667 14.0596 11.7589 13.837 11.923 13.673C12.0871 13.5089 12.3097 13.4167 12.5417 13.4167H18.9584C19.1905 13.4167 19.413 13.5089 19.5771 13.673C19.7412 13.837 19.8334 14.0596 19.8334 14.2917C19.8334 14.5237 19.7412 14.7463 19.5771 14.9104C19.413 15.0745 19.1905 15.1667 18.9584 15.1667H12.5417C12.3097 15.1667 12.0871 15.0745 11.923 14.9104C11.7589 14.7463 11.6667 14.5237 11.6667 14.2917ZM11.6667 17.7917C11.6667 17.5596 11.7589 17.337 11.923 17.173C12.0871 17.0089 12.3097 16.9167 12.5417 16.9167H18.9584C19.1905 16.9167 19.413 17.0089 19.5771 17.173C19.7412 17.337 19.8334 17.5596 19.8334 17.7917C19.8334 18.0237 19.7412 18.2463 19.5771 18.4104C19.413 18.5745 19.1905 18.6667 18.9584 18.6667H12.5417C12.3097 18.6667 12.0871 18.5745 11.923 18.4104C11.7589 18.2463 11.6667 18.0237 11.6667 17.7917ZM11.6667 21.2917C11.6667 21.0596 11.7589 20.837 11.923 20.673C12.0871 20.5089 12.3097 20.4167 12.5417 20.4167H18.9584C19.1905 20.4167 19.413 20.5089 19.5771 20.673C19.7412 20.837 19.8334 21.0596 19.8334 21.2917C19.8334 21.5237 19.7412 21.7463 19.5771 21.9104C19.413 22.0745 19.1905 22.1667 18.9584 22.1667H12.5417C12.3097 22.1667 12.0871 22.0745 11.923 21.9104C11.7589 21.7463 11.6667 21.5237 11.6667 21.2917ZM15.7501 9.33334V2.91667L22.7501 9.91667H16.3334C16.1787 9.91667 16.0303 9.85521 15.9209 9.74582C15.8115 9.63642 15.7501 9.48805 15.7501 9.33334Z" fill="#AFAFAF"/>
</svg>
