<svg width="28" height="28" viewBox="0 0 28 28" fill="none" xmlns="http://www.w3.org/2000/svg">
<path d="M23.8078 19.0711C22.558 17.717 21.0414 16.6364 19.3534 15.8973C17.6655 15.1581 15.8427 14.7766 14 14.7766C12.1573 14.7766 10.3346 15.1581 8.64663 15.8973C6.95866 16.6364 5.44202 17.717 4.19225 19.0711C3.9993 19.2845 3.89136 19.5612 3.88892 19.8489V24.5156C3.89301 24.8223 4.01773 25.115 4.23608 25.3305C4.45443 25.5459 4.74884 25.6667 5.05558 25.6667H22.9445C23.2539 25.6667 23.5506 25.5437 23.7694 25.325C23.9882 25.1062 24.1111 24.8094 24.1111 24.5V19.8333C24.1049 19.5511 23.9972 19.2805 23.8078 19.0711V19.0711Z" fill="#AFAFAF"/>
<path d="M14.0001 13.2222C17.007 13.2222 19.4446 10.7847 19.4446 7.77778C19.4446 4.7709 17.007 2.33334 14.0001 2.33334C10.9932 2.33334 8.55566 4.7709 8.55566 7.77778C8.55566 10.7847 10.9932 13.2222 14.0001 13.2222Z" fill="#AFAFAF"/>
</svg>
